<?xml version="1.0" standalone="no"?><!DOCTYPE svg PUBLIC "-//W3C//DTD SVG 1.1//EN" "http://www.w3.org/Graphics/SVG/1.1/DTD/svg11.dtd"><svg t="1559449766807" class="icon" style="" viewBox="0 0 1024 1024" version="1.1" xmlns="http://www.w3.org/2000/svg" p-id="18757" xmlns:xlink="http://www.w3.org/1999/xlink" width="200" height="200"><defs><style type="text/css"></style></defs><path d="M729.6 780.8c12.8 12.8 12.8 32 0 44.8-6.4 6.4-12.8 6.4-19.2 6.4s-12.8 0-19.2-6.4l-70.4-70.4-70.4 70.4c-12.8 6.4-19.2 6.4-25.6 6.4-6.4 0-12.8 0-19.2-6.4-12.8-12.8-12.8-32 0-44.8L576 710.4 499.2 633.6c-12.8-12.8-12.8-32 0-44.8 12.8-12.8 32-12.8 44.8 0l70.4 70.4 70.4-70.4c12.8-12.8 32-12.8 44.8 0 12.8 12.8 12.8 32 0 44.8L659.2 704l70.4 76.8z m6.4-512c0-19.2-12.8-32-25.6-32h-384c-12.8 0-25.6 19.2-25.6 32s12.8 32 25.6 32h384c12.8 0 25.6-12.8 25.6-32z m198.4 627.2V128c0-51.2-44.8-96-96-96h-640c-51.2 0-96 44.8-96 96v768c0 51.2 44.8 96 96 96h640c51.2 0 96-44.8 96-96zM838.4 96c19.2 0 32 12.8 32 32v768c0 19.2-12.8 32-32 32h-640c-19.2 0-32-12.8-32-32V128c0-19.2 12.8-32 32-32h640zM550.4 441.6c0-19.2-12.8-32-32-32H332.8c-19.2 0-32 12.8-32 32s12.8 32 32 32h185.6c19.2 0 32-12.8 32-32z" fill="" p-id="18758"></path></svg>