<?xml version="1.0" standalone="no"?><!DOCTYPE svg PUBLIC "-//W3C//DTD SVG 1.1//EN" "http://www.w3.org/Graphics/SVG/1.1/DTD/svg11.dtd"><svg t="1559449326937" class="icon" style="" viewBox="0 0 1024 1024" version="1.1" xmlns="http://www.w3.org/2000/svg" p-id="13783" xmlns:xlink="http://www.w3.org/1999/xlink" width="200" height="200"><defs><style type="text/css"></style></defs><path d="M752 886.4H270.5c-18.9 0-34.4 35.8-34.4 35.8V958h550.2v-35.8c0.1-19.7-15.4-35.8-34.3-35.8zM855.1 63.9H167.4c-57 0-103.2 48.1-103.2 107.3v500.7c0 59.2 46.2 107.3 103.2 107.3h240.7V815c0 19.7 15.4 35.8 34.4 35.8H580c18.9 0 34.4-18.4 34.4-35.8v-35.8h240.7c57 0 103.2-48.1 103.2-107.3V171.2c0-59.3-46.2-107.3-103.2-107.3zM167.4 636.1c-18.9 0-34.4-16.1-34.4-35.8V171.2c0-19.7 15.4-35.8 34.4-35.8h687.8c18.9 0 34.4 16.1 34.4 35.8v429.2c0 19.7-15.4 35.8-34.4 35.8H167.4zM762 225.8L648.8 343.6l-78.8-82c-7.6-7.9-18.2-11.6-28.9-10.2-10.6 1.5-20 8-25.3 17.7l-102.2 186-42.3-110c-4.3-11.2-13.7-19.3-25-21.7-11.5-2.4-23.1 1.2-31.2 9.7L211.8 440.4c-13.4 14-13.4 36.6 0 50.6s35.2 14 48.6 0l66.3-68.9 49.4 128.5c4.9 12.7 16.4 21.4 29.5 22.4 0.8 0 1.6 0.1 2.4 0.1 12.3 0 23.7-6.8 29.9-18l115.2-209.7 71.3 74.2c13.4 14 35.2 14 48.6 0l137.6-143.1c13.4-14 13.4-36.6 0-50.6s-35.1-14-48.6-0.1z m0 0" fill="#8a8a8a" p-id="13784"></path></svg>