<?xml version="1.0" standalone="no"?><!DOCTYPE svg PUBLIC "-//W3C//DTD SVG 1.1//EN" "http://www.w3.org/Graphics/SVG/1.1/DTD/svg11.dtd"><svg t="1559450122933" class="icon" style="" viewBox="0 0 1024 1024" version="1.1" xmlns="http://www.w3.org/2000/svg" p-id="27928" xmlns:xlink="http://www.w3.org/1999/xlink" width="200" height="200"><defs><style type="text/css"></style></defs><path d="M98.477 897.935c0-160.014 95.701-298.249 234.409-363.31 51.198 33.004 112.517 52.183 178.484 52.183 66.163 0 127.72-19.337 178.996-52.497 139.101 64.903 235.157 203.334 235.157 363.624 0 166.905-827.046 169.229-827.046 0z m609.454-435.499c-25.717 25.087-56.554 45.173-90.187 58.76-33.634 13.548-69.984 20.597-106.374 20.597s-72.78-7.05-106.374-20.597c-33.633-13.587-64.47-33.673-90.187-58.76-25.757-25.047-46.354-55.097-60.296-87.863-13.902-32.767-21.148-68.212-21.148-103.657 0-35.484 7.246-70.929 21.148-103.695 13.942-32.728 34.54-62.777 60.296-87.864 25.717-25.087 56.554-45.172 90.187-58.72C438.59 7.05 474.98 0 511.37 0s72.74 7.05 106.374 20.637c33.633 13.548 64.47 33.633 90.187 58.72 25.717 25.087 46.314 55.136 60.256 87.864 13.902 32.766 21.149 68.211 21.149 103.695 0 35.445-7.247 70.89-21.149 103.657-13.942 32.766-34.539 62.816-60.256 87.863z" p-id="27929"></path></svg>