<?xml version="1.0" standalone="no"?><!DOCTYPE svg PUBLIC "-//W3C//DTD SVG 1.1//EN" "http://www.w3.org/Graphics/SVG/1.1/DTD/svg11.dtd"><svg t="1559449937305" class="icon" style="" viewBox="0 0 1024 1024" version="1.1" xmlns="http://www.w3.org/2000/svg" p-id="20198" xmlns:xlink="http://www.w3.org/1999/xlink" width="200" height="200"><defs><style type="text/css"></style></defs><path d="M964.544 650.432c-0.96 1.984-2.624 3.648-4.736 4.48L515.2 831.616c-1.024 0.448-2.176 0.64-3.328 0.64-1.152 0-2.304-0.256-3.328-0.64L64 654.912c-2.112-0.896-3.84-2.496-4.736-4.48a8.414 8.414 0 0 0-0.896 3.776c0.064 3.648 0.064 122.304 0 125.888 0 3.648 2.24 6.848 5.632 8.192l444.608 176.704c1.024 0.384 2.176 0.64 3.328 0.64 1.152 0 2.304-0.192 3.328-0.64l444.608-176.704c3.392-1.344 5.568-4.608 5.696-8.192-0.064-3.648-0.064-122.304 0-125.888-0.128-1.344-0.448-2.624-1.024-3.776z" p-id="20199"></path><path d="M964.544 443.648c-0.96 1.984-2.624 3.648-4.736 4.48L515.2 624.832c-1.024 0.448-2.176 0.64-3.328 0.64-1.152 0-2.304-0.256-3.328-0.64L64 448.064c-2.112-0.896-3.84-2.496-4.736-4.48-0.576 1.216-0.96 2.496-0.96 3.776 0.064 3.648 0.064 122.304 0 125.888A9.044 9.044 0 0 0 64 581.504l444.608 176.704c1.024 0.384 2.176 0.64 3.328 0.64 1.152 0 2.304-0.192 3.328-0.64l444.608-176.704c3.392-1.344 5.568-4.608 5.696-8.192-0.064-3.648-0.064-122.304 0-125.888-0.128-1.344-0.448-2.624-1.024-3.776z" p-id="20200"></path><path d="M965.504 243.84c-0.064-3.648-2.304-6.848-5.696-8.192L515.2 58.88c-1.024-0.384-2.176-0.64-3.328-0.64-1.152 0-2.304 0.192-3.328 0.64L64 235.584a9.044 9.044 0 0 0-5.696 8.256c0.064 3.648 0.064 122.304 0 125.888 0.064 3.648 2.304 6.848 5.696 8.256l444.608 176.704c1.024 0.384 2.176 0.64 3.328 0.64 1.152 0 2.304-0.192 3.328-0.64l444.608-176.704c3.392-1.344 5.568-4.608 5.696-8.192-0.192-3.648-0.192-122.304-0.064-125.952z m-605.568-77.376l84.544-16.256-17.984-36.096a1.837 1.837 0 0 1 0.256-2.112 2 2 0 0 1 2.048-0.448l71.936 27.776 84.928-16.384c0.832-0.128 1.664 0.256 2.048 1.024 0.384 0.832 0.192 1.728-0.448 2.304l-37.824 31.872 71.04 27.456c0.896 0.32 1.344 1.28 1.152 2.176-0.192 0.832-1.024 1.472-1.984 1.408l-98.432-7.232-40.896 34.496c-0.32 0.32-0.768 0.448-1.216 0.448-0.128 0-0.256 0-0.384-0.064-0.512-0.064-1.024-0.448-1.28-0.96l-19.328-38.528-97.92-7.168c-0.96-0.064-1.664-0.832-1.728-1.792s0.576-1.792 1.472-1.92zM288.96 292.928c-28.608 0-55.744-4.672-76.416-13.056-20.736-8.512-32.128-19.776-32.064-31.744 0.064-11.456 10.688-21.952 29.952-29.504 18.24-7.168 42.56-11.136 68.608-11.136 28.096 0 54.912 4.48 75.392 12.672 21.312 8.448 33.024 19.84 33.088 32 0.064 11.264-10.176 21.632-28.736 29.184-18.368 7.488-43.136 11.584-69.824 11.584z m288.384 16.32l-45.632 86.912c-0.32 0.64-0.96 1.024-1.664 1.024-0.256 0-0.448-0.064-0.704-0.128L367.936 331.2a1.93 1.93 0 0 1-1.152-2.048c0.128-0.832 0.832-1.472 1.664-1.6l207.104-20.992c0.64-0.064 1.344 0.256 1.728 0.832 0.384 0.512 0.384 1.28 0.064 1.856z m265.92-58.432l-111.36 45.76c-0.256 0.064-0.448 0.128-0.704 0.128a2.3 2.3 0 0 1-0.704-0.128l-126.72-52.16c-0.64-0.32-1.152-1.024-1.088-1.792 0-0.768 0.448-1.472 1.152-1.728l111.872-44.416c0.448-0.192 0.96-0.192 1.408 0l126.144 50.816c0.704 0.256 1.152 0.96 1.152 1.728 0 0.832-0.448 1.536-1.152 1.792z" p-id="20201"></path></svg>