<?xml version="1.0" standalone="no"?><!DOCTYPE svg PUBLIC "-//W3C//DTD SVG 1.1//EN" "http://www.w3.org/Graphics/SVG/1.1/DTD/svg11.dtd"><svg t="1594891842816" class="icon" viewBox="0 0 1024 1024" version="1.1" xmlns="http://www.w3.org/2000/svg" p-id="5278" xmlns:xlink="http://www.w3.org/1999/xlink" width="128" height="128"><defs><style type="text/css"></style></defs><path d="M341.333333 682.666667a32 32 0 0 1-22.613333-9.386667L243.2 597.333333a53.333333 53.333333 0 0 1 0-75.52l75.52-75.52a32 32 0 0 1 45.226667 45.226667l-67.84 67.84 67.84 67.84A32 32 0 0 1 341.333333 682.666667zM682.666667 682.666667a32 32 0 0 1-22.613334-54.613334l67.84-67.84-67.84-67.84a32 32 0 1 1 45.226667-45.226666l75.52 75.52a53.333333 53.333333 0 0 1 0 75.52l-75.52 75.52A32 32 0 0 1 682.666667 682.666667z" fill="#333333" p-id="5279"></path><path d="M896 106.666667H128a21.333333 21.333333 0 0 0-21.333333 21.333333v704a21.333333 21.333333 0 0 0 21.333333 21.333333h768a21.333333 21.333333 0 0 0 21.333333-21.333333V128a21.333333 21.333333 0 0 0-21.333333-21.333333zM170.666667 288V170.666667h682.666666v117.333333zM170.666667 789.333333V352h682.666666V789.333333z" fill="#333333" p-id="5280"></path><path d="M448 695.04a32 32 0 0 1-26.666667-49.706667l128-193.706666a32 32 0 0 1 53.333334 35.2l-128 193.706666a32 32 0 0 1-26.666667 14.506667z" fill="#333333" p-id="5281"></path></svg>